<?xml version="1.0" encoding="UTF-8"?>
<svg id="Calque_2" data-name="Calque 2" xmlns="http://www.w3.org/2000/svg" viewBox="0 0 24 24">
  <path d="M12,21c-4.96,0-9-4.04-9-9,0-2.4,.94-4.66,2.64-6.36s3.96-2.64,6.36-2.64,4.66,.94,6.36,2.64,2.64,3.96,2.64,6.36-.94,4.66-2.64,6.36-3.96,2.64-6.36,2.64Zm-2-6c-1.1,0-2,.9-2,2s.9,2,2,2h4c1.1,0,2-.9,2-2s-.9-2-2-2v-4c0-.56-.23-1.06-.6-1.43,.13-.09,.25-.19,.37-.3,.47-.47,.73-1.11,.73-1.77s-.26-1.29-.73-1.77-1.1-.71-1.77-.71-1.31,.26-1.77,.71-.73,1.1-.73,1.77c0,.55,.18,1.07,.5,1.5h0c-1.1,0-2,.9-2,2s.9,2,2,2v2Z"/>
  <path d="M12,4c2.14,0,4.14,.83,5.66,2.34s2.34,3.52,2.34,5.66-.83,4.14-2.34,5.66c-.34,.34-.72,.65-1.11,.93,.29-.46,.45-1,.45-1.58,0-1.3-.84-2.42-2-2.83v-3.17c0-.46-.1-.9-.29-1.29,.51-.62,.79-1.41,.79-2.21,0-.93-.36-1.81-1.03-2.47-.64-.64-1.54-1.01-2.47-1.01s-1.84,.37-2.47,1.01c-.66,.66-1.03,1.54-1.03,2.47,0,.29,.03,.57,.1,.85-.95,.5-1.6,1.5-1.6,2.65,0,1.3,.84,2.42,2,2.83v.34c-1.16,.41-2,1.52-2,2.83,0,.58,.16,1.12,.45,1.58-2.08-1.45-3.45-3.85-3.45-6.58,0-2.14,.83-4.14,2.34-5.66s3.52-2.34,5.66-2.34m0-2c-2.76,0-5.26,1.12-7.07,2.93-1.81,1.81-2.93,4.31-2.93,7.07,0,5.52,4.48,10,10,10,2.76,0,5.26-1.12,7.07-2.93,1.81-1.81,2.93-4.31,2.93-7.07s-1.12-5.26-2.93-7.07c-1.81-1.81-4.31-2.93-7.07-2.93h0Zm0,7c-.4,0-.78-.16-1.06-.44-.28-.28-.44-.66-.44-1.06s.16-.78,.44-1.06c.28-.28,.67-.42,1.06-.42s.78,.14,1.06,.42c.28,.28,.44,.66,.44,1.06s-.16,.78-.44,1.06c-.28,.28-.66,.44-1.06,.44h0Zm-2,3c-.55,0-1-.45-1-1s.45-1,1-1h2c.55,0,1,.45,1,1v5h1c.55,0,1,.45,1,1s-.45,1-1,1h-4c-.55,0-1-.45-1-1s.45-1,1-1h1v-4h-1Z"/>
</svg>