<?xml version="1.0" encoding="UTF-8"?>
<svg id="Calque_2" data-name="Calque 2" xmlns="http://www.w3.org/2000/svg" viewBox="0 0 24 24">
  <defs>
    <style>
      .cls-1 {
        stroke-miterlimit: 10;
      }

      .cls-1, .cls-2, .cls-3 {
        fill: none;
        stroke: #000;
        stroke-linecap: round;
      }

      .cls-1, .cls-3 {
        stroke-width: 1.5px;
      }

      .cls-2 {
        stroke-width: 2.5px;
      }

      .cls-2, .cls-3 {
        stroke-linejoin: round;
      }
    </style>
  </defs>
  <path d="M12,3.5c4.69,0,8.5,3.81,8.5,8.5s-3.81,8.5-8.5,8.5S3.5,16.69,3.5,12,7.31,3.5,12,3.5m0-1.5h0C6.48,2,2,6.48,2,12h0c0,5.52,4.48,10,10,10h0c5.52,0,10-4.48,10-10h0c0-5.52-4.48-10-10-10h0Z"/>
  <polyline class="cls-3" points="12 17 12 11 9.5 11"/>
  <line class="cls-1" x1="9.5" y1="17" x2="14.5" y2="17"/>
  <line class="cls-2" x1="12" y1="7.5" x2="12" y2="7.5"/>
</svg>