<?xml version="1.0" encoding="UTF-8"?>
<svg id="Calque_2" data-name="Calque 2" xmlns="http://www.w3.org/2000/svg" viewBox="0 0 24 24">
  <defs>
    <style>
      .cls-1 {
        fill: none;
        stroke: #000;
        stroke-linecap: round;
        stroke-linejoin: round;
        stroke-width: 2px;
      }
    </style>
  </defs>
  <path d="M11.98,2.95c4.95,0,8.98,3.28,8.98,7.32,0,3.35-2.91,6.35-6.91,7.12-.34,.07-.66,.22-.93,.45l-2.82,2.43-1.22-2.47c-.22-.44-.59-.79-1.05-.97-3.06-1.22-5.04-3.79-5.04-6.56C3,6.23,7.03,2.95,11.98,2.95m0-2C5.92,.95,1,5.12,1,10.27c0,3.73,2.57,6.94,6.3,8.42l1.94,3.9c.13,.26,.4,.41,.68,.41,.18,0,.36-.06,.5-.18l4.02-3.47c4.88-.94,8.53-4.66,8.53-9.08C22.96,5.12,18.05,.95,11.98,.95h0Z"/>
  <polyline class="cls-1" points="10.32 13.76 6.82 10.27 10.32 6.77"/>
  <polyline class="cls-1" points="15.98 13.76 12.48 10.27 15.98 6.77"/>
</svg>