<?xml version="1.0" encoding="utf-8"?>
<!-- Generator: Adobe Illustrator 27.0.1, SVG Export Plug-In . SVG Version: 6.00 Build 0)  -->
<svg version="1.1" xmlns="http://www.w3.org/2000/svg" xmlns:xlink="http://www.w3.org/1999/xlink" x="0px" y="0px"
	 viewBox="0 0 24 24" style="enable-background:new 0 0 24 24;" xml:space="preserve">
<style type="text/css">
	.st0{fill:none;stroke:#000000;stroke-width:0.1;stroke-miterlimit:10;}
	.st1{opacity:0.3;}
	.st2{fill:none;stroke:#FF0000;stroke-width:0.1;stroke-miterlimit:10;}
	.st3{display:none;}
	.st4{fill:none;stroke:#000000;stroke-width:2;stroke-linecap:round;stroke-miterlimit:10;}
	.st5{fill:none;stroke:#000000;stroke-linecap:round;stroke-miterlimit:10;}
	.st6{fill:none;stroke:#000000;stroke-width:1.5;stroke-linecap:round;stroke-miterlimit:10;}
	.st7{fill:none;stroke:#000000;stroke-width:2;stroke-linecap:round;stroke-linejoin:round;stroke-miterlimit:10;}
	.st8{fill:none;stroke:#000000;stroke-width:2;stroke-linecap:round;stroke-linejoin:bevel;stroke-miterlimit:10;}
</style>
<symbol  id="ICONES_GRILLE" viewBox="-12.1 -12.1 24.1 24.1">
	<line class="st0" x1="-12" y1="12" x2="12" y2="-12"/>
	<path class="st0" d="M7-9H-7c-1.1,0-2,0.9-2,2V7c0,1.1,0.9,2,2,2H7c1.1,0,2-0.9,2-2V-7C9-8.1,8.1-9,7-9z"/>
	<path class="st0" d="M8-8H-8c-1.1,0-2,0.9-2,2V6c0,1.1,0.9,2,2,2H8c1.1,0,2-0.9,2-2V-6C10-7.1,9.1-8,8-8z"/>
	<path class="st0" d="M6-10H-6c-1.1,0-2,0.9-2,2V8c0,1.1,0.9,2,2,2H6c1.1,0,2-0.9,2-2V-8C8-9.1,7.1-10,6-10z"/>
	<g>
		<g>
			<g class="st1">
				<rect x="-12" y="-12" class="st2" width="24" height="24"/>
				<line class="st2" x1="-12" y1="-11" x2="12" y2="-11"/>
				<line class="st2" x1="-12" y1="-10" x2="12" y2="-10"/>
				<line class="st2" x1="-12" y1="-9" x2="12" y2="-9"/>
				<line class="st2" x1="-12" y1="-8" x2="12" y2="-8"/>
				<line class="st2" x1="-12" y1="-7" x2="12" y2="-7"/>
				<line class="st2" x1="-12" y1="-6" x2="12" y2="-6"/>
				<line class="st2" x1="-12" y1="-5" x2="12" y2="-5"/>
				<line class="st2" x1="-12" y1="-4" x2="12" y2="-4"/>
				<line class="st2" x1="-12" y1="-3" x2="12" y2="-3"/>
				<line class="st2" x1="-12" y1="-2" x2="12" y2="-2"/>
				<line class="st2" x1="-12" y1="-1" x2="12" y2="-1"/>
				<line class="st2" x1="-12" y1="0" x2="12" y2="0"/>
				<line class="st2" x1="-12" y1="1" x2="12" y2="1"/>
				<line class="st2" x1="-12" y1="2" x2="12" y2="2"/>
				<line class="st2" x1="-12" y1="3" x2="12" y2="3"/>
				<line class="st2" x1="-12" y1="4" x2="12" y2="4"/>
				<line class="st2" x1="-12" y1="5" x2="12" y2="5"/>
				<line class="st2" x1="-12" y1="6" x2="12" y2="6"/>
				<line class="st2" x1="-12" y1="7" x2="12" y2="7"/>
				<line class="st2" x1="-12" y1="8" x2="12" y2="8"/>
				<line class="st2" x1="-12" y1="9" x2="12" y2="9"/>
				<line class="st2" x1="-12" y1="10" x2="12" y2="10"/>
				<line class="st2" x1="-12" y1="11" x2="12" y2="11"/>
				<line class="st2" x1="11" y1="12" x2="11" y2="-12"/>
				<line class="st2" x1="10" y1="12" x2="10" y2="-12"/>
				<line class="st2" x1="9" y1="12" x2="9" y2="-12"/>
				<line class="st2" x1="8" y1="12" x2="8" y2="-12"/>
				<line class="st2" x1="7" y1="12" x2="7" y2="-12"/>
				<line class="st2" x1="6" y1="12" x2="6" y2="-12"/>
				<line class="st2" x1="5" y1="12" x2="5" y2="-12"/>
				<line class="st2" x1="4" y1="12" x2="4" y2="-12"/>
				<line class="st2" x1="3" y1="12" x2="3" y2="-12"/>
				<line class="st2" x1="2" y1="12" x2="2" y2="-12"/>
				<line class="st2" x1="1" y1="12" x2="1" y2="-12"/>
				<line class="st2" x1="0" y1="12" x2="0" y2="-12"/>
				<line class="st2" x1="-1" y1="12" x2="-1" y2="-12"/>
				<line class="st2" x1="-2" y1="12" x2="-2" y2="-12"/>
				<line class="st2" x1="-3" y1="12" x2="-3" y2="-12"/>
				<line class="st2" x1="-4" y1="12" x2="-4" y2="-12"/>
				<line class="st2" x1="-5" y1="12" x2="-5" y2="-12"/>
				<line class="st2" x1="-6" y1="12" x2="-6" y2="-12"/>
				<line class="st2" x1="-7" y1="12" x2="-7" y2="-12"/>
				<line class="st2" x1="-8" y1="12" x2="-8" y2="-12"/>
				<line class="st2" x1="-9" y1="12" x2="-9" y2="-12"/>
				<line class="st2" x1="-10" y1="12" x2="-10" y2="-12"/>
				<line class="st2" x1="-11" y1="12" x2="-11" y2="-12"/>
			</g>
			<line class="st0" x1="-12" y1="-12" x2="12" y2="12"/>
		</g>
	</g>
	<line class="st0" x1="0" y1="12" x2="0" y2="-12"/>
	<line class="st0" x1="-4" y1="12" x2="-4" y2="-12"/>
	<line class="st0" x1="-8" y1="12" x2="-8" y2="-12"/>
	<line class="st0" x1="4" y1="12" x2="4" y2="-12"/>
	<line class="st0" x1="8" y1="12" x2="8" y2="-12"/>
	<line class="st0" x1="12" y1="4" x2="-12" y2="4"/>
	<line class="st0" x1="12" y1="8" x2="-12" y2="8"/>
	<line class="st0" x1="12" y1="-4" x2="-12" y2="-4"/>
	<line class="st0" x1="12" y1="-8" x2="-12" y2="-8"/>
	<line class="st0" x1="12" y1="0" x2="-12" y2="0"/>
	<circle class="st0" cx="0" cy="0" r="10"/>
	<circle class="st0" cx="0" cy="0" r="5"/>
</symbol>
<g id="Calque_1" class="st3">
	
		<use xlink:href="#ICONES_GRILLE"  width="24.1" height="24.1" x="-12.1" y="-12.1" transform="matrix(1 0 0 -1 12 12)" style="display:inline;overflow:visible;"/>
</g>
<g id="Calque_2">
	<g>
		<path d="M19,3H5C3.9,3,3,3.9,3,5v14c0,1.1,0.9,2,2,2h14c1.1,0,2-0.9,2-2V5C21,3.9,20.1,3,19,3z M16.7,15.3c0.4,0.4,0.4,1,0,1.4
			C16.5,16.9,16.3,17,16,17s-0.5-0.1-0.7-0.3L12,13.4l-3.3,3.3C8.5,16.9,8.3,17,8,17s-0.5-0.1-0.7-0.3c-0.4-0.4-0.4-1,0-1.4l3.3-3.3
			L7.3,8.7c-0.4-0.4-0.4-1,0-1.4c0.4-0.4,1-0.4,1.4,0l3.3,3.3l3.3-3.3c0.4-0.4,1-0.4,1.4,0c0.4,0.4,0.4,1,0,1.4L13.4,12L16.7,15.3z"
			/>
	</g>
</g>
</svg>
