<?xml version="1.0" encoding="UTF-8"?>
<svg id="Calque_2" data-name="Calque 2" xmlns="http://www.w3.org/2000/svg" viewBox="0 0 24 24">
  <defs>
    <style>
      .cls-1, .cls-2 {
        fill: none;
        stroke: #000;
        stroke-linecap: round;
        stroke-linejoin: round;
      }

      .cls-2 {
        stroke-width: 1.5px;
      }
    </style>
  </defs>
  <path d="M20,3c.55,0,1,.45,1,1V20c0,.55-.45,1-1,1H4c-.55,0-1-.45-1-1V4c0-.55,.45-1,1-1H20m0-1H4c-1.1,0-2,.9-2,2V20c0,1.1,.9,2,2,2H20c1.1,0,2-.9,2-2V4c0-1.1-.9-2-2-2h0Z"/>
  <polyline class="cls-1" points="12 16 12 10.5 10.5 10.5"/>
  <line class="cls-1" x1="10.5" y1="16.5" x2="13.5" y2="16.5"/>
  <line class="cls-2" x1="12" y1="7.5" x2="12" y2="7.5"/>
</svg>