<?xml version="1.0" encoding="UTF-8"?>
<svg id="Calque_2" data-name="Calque 2" xmlns="http://www.w3.org/2000/svg" viewBox="0 0 24 24">
  <path d="M20,2H4c-1.1,0-2,.9-2,2V20c0,1.1,.9,2,2,2H20c1.1,0,2-.9,2-2V4c0-1.1-.9-2-2-2ZM10.94,6.44c.56-.56,1.56-.56,2.12,0,.28,.28,.44,.66,.44,1.06s-.16,.78-.44,1.06c-.28,.28-.66,.44-1.06,.44s-.78-.16-1.06-.44c-.28-.28-.44-.66-.44-1.06s.16-.78,.44-1.06Zm3.06,11.56h-4c-.55,0-1-.45-1-1s.45-1,1-1h1v-4h-1c-.55,0-1-.45-1-1s.45-1,1-1h2c.55,0,1,.45,1,1v5h1c.55,0,1,.45,1,1s-.45,1-1,1Z"/>
</svg>